<svg width="19" height="18" viewBox="0 0 19 18" fill="none" xmlns="http://www.w3.org/2000/svg">
<g id="HouseLine">
<path id="Vector" d="M17.375 14.625H16.25V9.5625L16.4145 9.72703C16.5203 9.83258 16.6636 9.8918 16.813 9.89167C16.9624 9.89154 17.1056 9.83206 17.2112 9.72633C17.3167 9.62059 17.3759 9.47726 17.3758 9.32786C17.3757 9.17846 17.3162 9.03523 17.2105 8.92969L10.2952 2.01656C10.0843 1.80574 9.79824 1.68732 9.5 1.68732C9.20176 1.68732 8.91572 1.80574 8.70477 2.01656L1.78953 8.92969C1.68408 9.03523 1.62487 9.17835 1.62494 9.32755C1.625 9.47675 1.68433 9.61982 1.78988 9.72527C1.89543 9.83073 2.03855 9.88993 2.18775 9.88987C2.33695 9.8898 2.48001 9.83047 2.58547 9.72492L2.75 9.5625V14.625H1.625C1.47582 14.625 1.33274 14.6843 1.22725 14.7898C1.12176 14.8952 1.0625 15.0383 1.0625 15.1875C1.0625 15.3367 1.12176 15.4798 1.22725 15.5852C1.33274 15.6907 1.47582 15.75 1.625 15.75H17.375C17.5242 15.75 17.6673 15.6907 17.7727 15.5852C17.8782 15.4798 17.9375 15.3367 17.9375 15.1875C17.9375 15.0383 17.8782 14.8952 17.7727 14.7898C17.6673 14.6843 17.5242 14.625 17.375 14.625ZM3.875 8.4375L9.5 2.8125L15.125 8.4375V14.625H11.75V10.6875C11.75 10.5383 11.6907 10.3952 11.5852 10.2898C11.4798 10.1843 11.3367 10.125 11.1875 10.125H7.8125C7.66332 10.125 7.52024 10.1843 7.41475 10.2898C7.30926 10.3952 7.25 10.5383 7.25 10.6875V14.625H3.875V8.4375ZM10.625 14.625H8.375V11.25H10.625V14.625Z" fill="currentColor"/>
</g>
</svg>
