<svg width="19" height="18" viewBox="0 0 19 18" fill="none" xmlns="http://www.w3.org/2000/svg">
<g id="MoonStars">
<path id="Vector" d="M17.375 6.75C17.375 6.89918 17.3157 7.04226 17.2102 7.14775C17.1047 7.25324 16.9616 7.3125 16.8125 7.3125H15.6875V8.4375C15.6875 8.58668 15.6282 8.72976 15.5227 8.83525C15.4172 8.94074 15.2741 9 15.125 9C14.9758 9 14.8327 8.94074 14.7272 8.83525C14.6217 8.72976 14.5625 8.58668 14.5625 8.4375V7.3125H13.4375C13.2883 7.3125 13.1452 7.25324 13.0397 7.14775C12.9342 7.04226 12.875 6.89918 12.875 6.75C12.875 6.60082 12.9342 6.45774 13.0397 6.35225C13.1452 6.24676 13.2883 6.1875 13.4375 6.1875H14.5625V5.0625C14.5625 4.91332 14.6217 4.77024 14.7272 4.66475C14.8327 4.55926 14.9758 4.5 15.125 4.5C15.2741 4.5 15.4172 4.55926 15.5227 4.66475C15.6282 4.77024 15.6875 4.91332 15.6875 5.0625V6.1875H16.8125C16.9616 6.1875 17.1047 6.24676 17.2102 6.35225C17.3157 6.45774 17.375 6.60082 17.375 6.75ZM10.625 3.9375H11.1875V4.5C11.1875 4.64918 11.2467 4.79226 11.3522 4.89775C11.4577 5.00324 11.6008 5.0625 11.75 5.0625C11.8991 5.0625 12.0422 5.00324 12.1477 4.89775C12.2532 4.79226 12.3125 4.64918 12.3125 4.5V3.9375H12.875C13.0241 3.9375 13.1672 3.87824 13.2727 3.77275C13.3782 3.66726 13.4375 3.52418 13.4375 3.375C13.4375 3.22582 13.3782 3.08274 13.2727 2.97725C13.1672 2.87176 13.0241 2.8125 12.875 2.8125H12.3125V2.25C12.3125 2.10082 12.2532 1.95774 12.1477 1.85225C12.0422 1.74676 11.8991 1.6875 11.75 1.6875C11.6008 1.6875 11.4577 1.74676 11.3522 1.85225C11.2467 1.95774 11.1875 2.10082 11.1875 2.25V2.8125H10.625C10.4758 2.8125 10.3327 2.87176 10.2272 2.97725C10.1217 3.08274 10.0625 3.22582 10.0625 3.375C10.0625 3.52418 10.1217 3.66726 10.2272 3.77275C10.3327 3.87824 10.4758 3.9375 10.625 3.9375ZM15.7416 10.7578C15.8071 10.834 15.8509 10.9264 15.8686 11.0253C15.8863 11.1243 15.8772 11.2261 15.8421 11.3203C15.4518 12.3848 14.7997 13.3338 13.9459 14.0797C13.0921 14.8257 12.0641 15.3446 10.9569 15.5885C9.8497 15.8324 8.69888 15.7935 7.61066 15.4753C6.52245 15.1572 5.5319 14.5701 4.73043 13.7681C3.92897 12.9662 3.34241 11.9753 3.02488 10.8869C2.70736 9.79854 2.6691 8.6477 2.91364 7.54062C3.15818 6.43354 3.67764 5.40589 4.42408 4.55251C5.17052 3.69914 6.11989 3.04752 7.18457 2.65781C7.27828 2.62349 7.37944 2.61472 7.47766 2.6324C7.57587 2.65008 7.66762 2.69357 7.74349 2.75841C7.81935 2.82325 7.8766 2.90711 7.90935 3.00138C7.94211 3.09565 7.94919 3.19693 7.92988 3.29484C7.73276 4.29256 7.78441 5.32346 8.08026 6.29648C8.3761 7.26949 8.90704 8.15467 9.62617 8.87379C10.3453 9.59292 11.2305 10.1239 12.2035 10.4197C13.1765 10.7156 14.2074 10.7672 15.2051 10.5701C15.3032 10.5509 15.4045 10.5582 15.4988 10.5912C15.5931 10.6242 15.6769 10.6817 15.7416 10.7578ZM14.3782 11.8041C14.2524 11.8104 14.1258 11.8139 14 11.8139C12.061 11.8119 10.202 11.0406 8.83101 9.66937C7.46005 8.29815 6.68914 6.43901 6.68746 4.5C6.68746 4.37414 6.68746 4.24758 6.69731 4.12172C5.94889 4.55239 5.30967 5.14958 4.82917 5.86703C4.34867 6.58448 4.0398 7.40291 3.92648 8.25893C3.81316 9.11495 3.89843 9.98556 4.1757 10.8033C4.45297 11.6211 4.91478 12.364 5.52535 12.9746C6.13593 13.5852 6.87888 14.047 7.69664 14.3243C8.5144 14.6015 9.38501 14.6868 10.241 14.5735C11.097 14.4602 11.9155 14.1513 12.6329 13.6708C13.3504 13.1903 13.9476 12.5511 14.3782 11.8027V11.8041Z" fill="currentColor"/>
</g>
</svg>
