<svg width="18" height="18" viewBox="0 0 18 18" fill="none" xmlns="http://www.w3.org/2000/svg">
<g id="Quotes">
<path id="Vector" d="M7.03125 3.9375H2.8125C2.51413 3.9375 2.22798 4.05603 2.017 4.267C1.80603 4.47798 1.6875 4.76413 1.6875 5.0625V9.5625C1.6875 9.86087 1.80603 10.147 2.017 10.358C2.22798 10.569 2.51413 10.6875 2.8125 10.6875H7.03125V11.25C7.03125 11.8467 6.7942 12.419 6.37224 12.841C5.95028 13.2629 5.37799 13.5 4.78125 13.5C4.63207 13.5 4.48899 13.5593 4.3835 13.6648C4.27801 13.7702 4.21875 13.9133 4.21875 14.0625C4.21875 14.2117 4.27801 14.3548 4.3835 14.4602C4.48899 14.5657 4.63207 14.625 4.78125 14.625C5.67607 14.6241 6.53397 14.2682 7.16671 13.6355C7.79944 13.0027 8.15532 12.1448 8.15625 11.25V5.0625C8.15625 4.76413 8.03772 4.47798 7.82674 4.267C7.61577 4.05603 7.32962 3.9375 7.03125 3.9375ZM7.03125 9.5625H2.8125V5.0625H7.03125V9.5625ZM15.1875 3.9375H10.9688C10.6704 3.9375 10.3842 4.05603 10.1733 4.267C9.96228 4.47798 9.84375 4.76413 9.84375 5.0625V9.5625C9.84375 9.86087 9.96228 10.147 10.1733 10.358C10.3842 10.569 10.6704 10.6875 10.9688 10.6875H15.1875V11.25C15.1875 11.8467 14.9504 12.419 14.5285 12.841C14.1065 13.2629 13.5342 13.5 12.9375 13.5C12.7883 13.5 12.6452 13.5593 12.5398 13.6648C12.4343 13.7702 12.375 13.9133 12.375 14.0625C12.375 14.2117 12.4343 14.3548 12.5398 14.4602C12.6452 14.5657 12.7883 14.625 12.9375 14.625C13.8323 14.6241 14.6902 14.2682 15.323 13.6355C15.9557 13.0027 16.3116 12.1448 16.3125 11.25V5.0625C16.3125 4.76413 16.194 4.47798 15.983 4.267C15.772 4.05603 15.4859 3.9375 15.1875 3.9375ZM15.1875 9.5625H10.9688V5.0625H15.1875V9.5625Z" fill="currentColor"/>
</g>
</svg>
