<svg width="18" height="18" viewBox="0 0 18 18" fill="none" xmlns="http://www.w3.org/2000/svg">
<g id="Sparkle">
<path id="Vector" d="M13.8924 9.07453L10.2657 7.73437L8.92974 4.10484C8.85063 3.88992 8.70749 3.70443 8.51965 3.57341C8.3318 3.44239 8.10829 3.37214 7.87927 3.37214C7.65025 3.37214 7.42673 3.44239 7.23889 3.57341C7.05105 3.70443 6.90791 3.88992 6.8288 4.10484L5.48443 7.73437L1.85489 9.07031C1.63997 9.14942 1.45448 9.29256 1.32346 9.4804C1.19244 9.66825 1.12219 9.89176 1.12219 10.1208C1.12219 10.3498 1.19244 10.5733 1.32346 10.7612C1.45448 10.949 1.63997 11.0921 1.85489 11.1712L5.48443 12.5156L6.82036 16.1452C6.89948 16.3601 7.04261 16.5456 7.23045 16.6766C7.4183 16.8076 7.64181 16.8779 7.87083 16.8779C8.09985 16.8779 8.32337 16.8076 8.51121 16.6766C8.69905 16.5456 8.84219 16.3601 8.9213 16.1452L10.2657 12.5156L13.8952 11.1797C14.1101 11.1006 14.2956 10.9574 14.4266 10.7696C14.5577 10.5818 14.6279 10.3582 14.6279 10.1292C14.6279 9.90019 14.5577 9.67668 14.4266 9.48884C14.2956 9.301 14.1101 9.15786 13.8952 9.07875L13.8924 9.07453ZM9.63286 11.5467C9.55651 11.5749 9.48717 11.6192 9.42963 11.6768C9.37209 11.7343 9.32772 11.8036 9.29958 11.88L7.87505 15.7395L6.45333 11.8828C6.42524 11.8057 6.38059 11.7356 6.32253 11.6775C6.26447 11.6195 6.1944 11.5748 6.11724 11.5467L2.2606 10.125L6.11724 8.70328C6.1944 8.67519 6.26447 8.63054 6.32253 8.57248C6.38059 8.51441 6.42524 8.44434 6.45333 8.36719L7.87505 4.51055L9.29677 8.36719C9.32491 8.44354 9.36928 8.51288 9.42682 8.57042C9.48436 8.62796 9.5537 8.67233 9.63005 8.70047L13.4895 10.125L9.63286 11.5467ZM10.125 2.8125C10.125 2.66332 10.1843 2.52024 10.2898 2.41475C10.3953 2.30926 10.5384 2.25 10.6875 2.25H11.8125V1.125C11.8125 0.975816 11.8718 0.832742 11.9773 0.727252C12.0828 0.621763 12.2259 0.5625 12.375 0.5625C12.5242 0.5625 12.6673 0.621763 12.7728 0.727252C12.8783 0.832742 12.9375 0.975816 12.9375 1.125V2.25H14.0625C14.2117 2.25 14.3548 2.30926 14.4603 2.41475C14.5658 2.52024 14.625 2.66332 14.625 2.8125C14.625 2.96168 14.5658 3.10476 14.4603 3.21025C14.3548 3.31574 14.2117 3.375 14.0625 3.375H12.9375V4.5C12.9375 4.64918 12.8783 4.79226 12.7728 4.89775C12.6673 5.00324 12.5242 5.0625 12.375 5.0625C12.2259 5.0625 12.0828 5.00324 11.9773 4.89775C11.8718 4.79226 11.8125 4.64918 11.8125 4.5V3.375H10.6875C10.5384 3.375 10.3953 3.31574 10.2898 3.21025C10.1843 3.10476 10.125 2.96168 10.125 2.8125ZM17.4375 6.1875C17.4375 6.33668 17.3783 6.47976 17.2728 6.58525C17.1673 6.69074 17.0242 6.75 16.875 6.75H16.3125V7.3125C16.3125 7.46168 16.2533 7.60476 16.1478 7.71025C16.0423 7.81574 15.8992 7.875 15.75 7.875C15.6009 7.875 15.4578 7.81574 15.3523 7.71025C15.2468 7.60476 15.1875 7.46168 15.1875 7.3125V6.75H14.625C14.4759 6.75 14.3328 6.69074 14.2273 6.58525C14.1218 6.47976 14.0625 6.33668 14.0625 6.1875C14.0625 6.03832 14.1218 5.89524 14.2273 5.78975C14.3328 5.68426 14.4759 5.625 14.625 5.625H15.1875V5.0625C15.1875 4.91332 15.2468 4.77024 15.3523 4.66475C15.4578 4.55926 15.6009 4.5 15.75 4.5C15.8992 4.5 16.0423 4.55926 16.1478 4.66475C16.2533 4.77024 16.3125 4.91332 16.3125 5.0625V5.625H16.875C17.0242 5.625 17.1673 5.68426 17.2728 5.78975C17.3783 5.89524 17.4375 6.03832 17.4375 6.1875Z" fill="#F79009"/>
</g>
</svg>
