<svg width="157" height="179" viewBox="0 0 157 179" fill="none" xmlns="http://www.w3.org/2000/svg">
<mask id="mask0_309_532" style="mask-type:luminance" maskUnits="userSpaceOnUse" x="0" y="111" width="112" height="68">
<path d="M0 111.477H111.079V179H0V111.477Z" fill="white"/>
</mask>
<g mask="url(#mask0_309_532)">
<path d="M0.0629264 145.327C0.148011 136.865 7.0109 129.879 15.5516 129.598C17.4575 129.534 19.3141 129.798 21.1264 130.391C21.1587 129.884 21.2251 129.381 21.3272 128.884C21.4293 128.385 21.5654 127.897 21.7339 127.417C21.904 126.939 22.1048 126.472 22.3397 126.021C22.5728 125.571 22.8366 125.137 23.1292 124.721C23.4236 124.306 23.7435 123.913 24.0924 123.544C24.4395 123.173 24.8122 122.827 25.207 122.507C25.6035 122.189 26.0187 121.898 26.4543 121.636C26.89 121.374 27.3409 121.144 27.8089 120.944C28.2768 120.745 28.755 120.578 29.2468 120.445C29.7369 120.312 30.2338 120.214 30.7392 120.149C31.2429 120.084 31.75 120.054 32.2571 120.06C32.7659 120.066 33.2713 120.105 33.775 120.181C34.277 120.256 34.7722 120.365 35.2605 120.51C35.7472 120.653 36.2237 120.83 36.6866 121.039C37.1494 121.248 37.597 121.488 38.0258 121.759C38.4563 122.031 38.8664 122.331 39.2544 122.657C39.2935 122.3 39.3463 121.944 39.416 121.59C39.4858 121.238 39.5709 120.887 39.6713 120.542C39.7717 120.197 39.8857 119.855 40.0167 119.519C40.1461 119.184 40.2907 118.854 40.4507 118.531C40.6089 118.207 40.7825 117.893 40.9697 117.585C41.1569 117.277 41.356 116.979 41.5687 116.688C41.7831 116.397 42.0077 116.116 42.2459 115.847C42.4825 115.577 42.7326 115.316 42.993 115.068C43.2533 114.819 43.5239 114.583 43.8064 114.356C44.0872 114.132 44.3782 113.921 44.6777 113.72C44.9771 113.521 45.2852 113.335 45.6017 113.164C45.9182 112.992 46.2415 112.833 46.5716 112.689C46.9018 112.544 47.237 112.417 47.579 112.301C47.9211 112.187 48.2665 112.088 48.6171 112.003C48.9676 111.92 49.3198 111.85 49.6755 111.797C50.0329 111.744 50.3902 111.707 50.7493 111.685C51.11 111.664 51.4691 111.658 51.8298 111.668C52.1889 111.678 52.5479 111.704 52.9053 111.744C53.2643 111.787 53.6183 111.843 53.9722 111.916C54.3245 111.988 54.6733 112.076 55.0188 112.18C55.3642 112.282 55.7029 112.401 56.0381 112.534C56.3733 112.667 56.7017 112.815 57.0234 112.976C57.345 113.138 57.6581 113.313 57.9644 113.504C58.2707 113.693 58.5685 113.895 58.8578 114.111C59.1454 114.326 59.4244 114.554 59.6933 114.794C59.9605 115.034 60.2191 115.286 60.4659 115.548C60.7109 115.811 60.9457 116.084 61.1687 116.366C61.3916 116.65 61.6009 116.943 61.7966 117.244C61.994 117.545 62.1778 117.855 62.3462 118.173C62.5164 118.492 62.6713 118.815 62.8125 119.147C62.9537 119.478 63.0797 119.815 63.192 120.157C63.3043 120.5 63.3996 120.847 63.4813 121.197C64.0598 120.709 64.669 120.263 65.3106 119.86C65.9504 119.458 66.6175 119.102 67.3083 118.794C68.0009 118.486 68.7105 118.228 69.4388 118.02C70.1655 117.813 70.9057 117.656 71.6544 117.552C72.4049 117.45 73.1587 117.399 73.916 117.402C74.6732 117.406 75.4254 117.462 76.1758 117.573C76.9246 117.682 77.6614 117.843 78.388 118.058C79.1146 118.272 79.8225 118.536 80.5117 118.851C81.1992 119.164 81.8628 119.526 82.501 119.933C83.1391 120.341 83.7449 120.792 84.3184 121.286C84.8918 121.779 85.4279 122.312 85.9282 122.88C86.4268 123.45 86.8828 124.053 87.2963 124.686C87.7098 125.32 88.0757 125.981 88.3973 126.666C88.7172 127.352 88.9878 128.057 89.2073 128.782C89.4285 129.505 89.597 130.242 89.7127 130.989C89.8284 131.737 89.8914 132.49 89.9016 133.247C90.1585 133.247 90.4189 133.232 90.6793 133.232C101.766 133.232 110.746 142.181 110.664 153.192C110.589 163.991 101.694 172.806 90.8018 172.871C89.1222 172.884 87.4665 172.69 85.8363 172.287C84.2061 171.884 82.6507 171.285 81.1702 170.49C80.9609 170.783 80.7431 171.07 80.5185 171.351C80.2939 171.632 80.0608 171.907 79.8225 172.176C79.5826 172.445 79.3358 172.707 79.0823 172.962C78.827 173.219 78.5667 173.468 78.2995 173.709C78.0323 173.951 77.7601 174.184 77.4793 174.412C77.2002 174.639 76.9143 174.858 76.6217 175.069C76.3307 175.28 76.0346 175.484 75.7317 175.68C75.4288 175.876 75.1208 176.063 74.8077 176.242C74.4962 176.42 74.178 176.59 73.8564 176.752C73.5348 176.915 73.2098 177.069 72.8796 177.212C72.5495 177.356 72.216 177.492 71.8774 177.618C71.5404 177.744 71.2001 177.862 70.8563 177.97C70.5126 178.078 70.1672 178.178 69.8166 178.267C69.4678 178.357 69.1172 178.437 68.7633 178.506C68.411 178.578 68.0554 178.639 67.6997 178.69C67.3424 178.741 66.985 178.784 66.626 178.816C66.2669 178.849 65.9079 178.871 65.5471 178.883C65.188 178.896 64.8273 178.9 64.4682 178.893C64.1075 178.886 63.7484 178.871 63.3877 178.845C63.0286 178.82 62.6713 178.784 62.3139 178.738C61.9548 178.694 61.5992 178.639 61.2452 178.575C60.8913 178.51 60.539 178.437 60.1885 178.353C59.8379 178.27 59.4891 178.178 59.1437 178.076C58.7982 177.974 58.4562 177.862 58.1158 177.742C57.7772 177.622 57.4403 177.492 57.1084 177.354C56.7749 177.215 56.4465 177.069 56.1215 176.912C55.7965 176.755 55.4765 176.59 55.1617 176.417C54.8452 176.245 54.5338 176.063 54.2292 175.872C53.9229 175.682 53.6217 175.484 53.3273 175.278C53.0312 175.072 52.7419 174.858 52.4577 174.635C52.1736 174.414 51.8962 174.184 51.6239 173.948C51.3534 173.711 51.0879 173.468 50.8292 173.216C50.4702 173.488 50.0975 173.742 49.7146 173.98C49.3318 174.218 48.9387 174.439 48.5354 174.642C48.1321 174.844 47.7203 175.028 47.3017 175.193C46.8813 175.358 46.4542 175.505 46.022 175.632C45.5898 175.758 45.1507 175.865 44.7083 175.952C44.2658 176.041 43.82 176.107 43.3708 176.155C42.9232 176.202 42.4723 176.228 42.0213 176.235C41.5704 176.242 41.1194 176.228 40.6702 176.194C40.2209 176.16 39.7734 176.105 39.3276 176.031C38.8834 175.956 38.4427 175.86 38.0054 175.746C37.5697 175.632 37.1392 175.498 36.7155 175.345C36.2901 175.192 35.8748 175.02 35.4647 174.829C35.0563 174.639 34.6564 174.429 34.2668 174.203C33.8771 173.975 33.4976 173.732 33.13 173.471C32.7625 173.209 32.4068 172.932 32.0648 172.639C31.721 172.346 31.3926 172.038 31.0778 171.715C30.7085 172.086 30.3137 172.43 29.8951 172.746C29.4765 173.063 29.0375 173.347 28.5797 173.601C28.1203 173.854 27.6455 174.074 27.1554 174.259C26.6636 174.445 26.1633 174.594 25.6511 174.708C25.1389 174.822 24.6216 174.901 24.0992 174.941C23.5768 174.982 23.0544 174.986 22.5303 174.952C22.0078 174.918 21.4888 174.846 20.9749 174.739C20.4627 174.63 19.959 174.487 19.4672 174.307C18.9737 174.128 18.4973 173.915 18.0344 173.667C17.5715 173.42 17.1291 173.141 16.7071 172.83C16.2851 172.52 15.8869 172.181 15.5125 171.814C15.1381 171.446 14.791 171.055 14.4728 170.638C14.1546 170.221 13.867 169.784 13.6117 169.326C13.3548 168.87 13.1336 168.395 12.9447 167.907C12.7558 167.417 12.6026 166.918 12.4852 166.406C12.3678 165.895 12.2878 165.378 12.2436 164.856C12.1449 163.552 12.2793 162.271 12.6486 161.017C12.2044 160.921 11.7654 160.807 11.3315 160.673C10.8975 160.54 10.4704 160.389 10.0501 160.22C9.62979 160.05 9.21628 159.863 8.81128 159.659C8.40628 159.454 8.01149 159.233 7.62521 158.995C7.23892 158.755 6.86285 158.501 6.49869 158.231C6.13453 157.96 5.78228 157.674 5.44365 157.375C5.10331 157.074 4.77659 156.759 4.46348 156.431C4.15037 156.102 3.85257 155.762 3.56839 155.408C3.28421 155.054 3.01535 154.688 2.7635 154.31C2.50995 153.934 2.27511 153.548 2.0539 153.15C1.83438 152.753 1.63188 152.348 1.4481 151.933C1.26261 151.519 1.09585 151.097 0.9461 150.669C0.798053 150.242 0.667024 149.806 0.554713 149.367C0.444103 148.928 0.350511 148.484 0.277338 148.036C0.202464 147.589 0.14801 147.139 0.112275 146.687C0.0765395 146.234 0.0595232 145.781 0.0629264 145.327Z" fill="#8098F9"/>
</g>
<mask id="mask1_309_532" style="mask-type:luminance" maskUnits="userSpaceOnUse" x="33" y="0" width="124" height="148">
<path d="M33.5369 0H156.827V147.635H33.5369V0Z" fill="white"/>
</mask>
<g mask="url(#mask1_309_532)">
<path d="M156.827 125.137C150.677 133.98 141.487 140.049 131.322 143.656C109.689 151.387 83.6872 146.19 65.372 132.119C34.4762 109.185 24.1198 64.4411 43.7759 31.1119C51.4573 17.9052 63.8235 6.97525 78.3711 2.33476C82.154 1.12656 86.027 0.386331 89.9902 0.115764C91.3073 0.0596084 92.6176 0.0528019 93.9245 0.0936423C93.2098 1.22186 92.5019 2.28881 91.7957 3.31323C90.5977 5.16976 89.0526 7.6321 87.9652 9.48864C74.4488 32.0989 71.5661 60.4643 83.4064 83.7263C95.2229 107.722 120.649 122.407 147.497 124.526C150.414 124.839 153.868 124.956 156.827 125.154V125.137Z" fill="#6172F3"/>
</g>
<path d="M52.4444 52C52.3885 52 52.3342 51.9899 52.2815 51.968C52.168 51.9208 52.089 51.8398 52.0397 51.7252C51.9903 51.6106 51.987 51.4959 52.0298 51.3779L52.9117 49.0734C52.961 48.9436 53.0499 48.8542 53.1782 48.807C53.3066 48.7598 53.43 48.7716 53.5484 48.8373C57.15 50.8789 60.3864 51.3931 63.1785 50.3664C67.3444 48.8323 69.123 44.3142 69.1395 44.267C69.1888 44.1574 69.2695 44.0799 69.3797 44.0344C69.4899 43.9888 69.6002 43.9888 69.712 44.0327C69.8223 44.0765 69.9029 44.154 69.9539 44.2636C70.0066 44.3732 70.0131 44.4862 69.9786 44.6025C69.9029 44.8048 68.0437 49.5521 63.4911 51.2329C60.5624 52.3136 57.2257 51.8533 53.5665 49.8977L52.8656 51.6881C52.8344 51.7808 52.7801 51.855 52.7027 51.9123C52.6254 51.968 52.5398 51.9983 52.4444 52Z" fill="#44355C"/>
<path d="M72.4209 80C70.3013 79.9456 68.2624 79.3875 66.301 78.3281C66.2425 78.2986 66.191 78.2532 66.1463 78.1965C66.1016 78.1398 66.0655 78.074 66.0397 77.9969C66.0156 77.922 66.0019 77.8426 66.0002 77.7609C65.9984 77.6793 66.0105 77.5976 66.0328 77.5205C66.0552 77.4456 66.0878 77.3753 66.1308 77.3163C66.1738 77.2573 66.2254 77.2097 66.2821 77.1779C66.3388 77.1439 66.399 77.1257 66.4609 77.1235C66.5245 77.1212 66.5846 77.1371 66.6431 77.1666C75.2109 81.5381 79.1407 75.2655 79.1785 75.202C79.2627 75.0818 79.3676 75.0137 79.4913 75.0024C79.6151 74.9887 79.7251 75.0341 79.8231 75.1362C79.9194 75.2383 79.9761 75.3721 79.995 75.5332C80.0122 75.6965 79.9847 75.844 79.9142 75.9801C79.7836 76.2138 77.4113 80 72.4209 80Z" fill="#44355C"/>
<path d="M53.5312 52C53.4692 52 53.4073 51.9904 53.3492 51.9743C53.2834 51.9534 53.2234 51.9228 53.173 51.8842C53.1208 51.844 53.0801 51.7974 53.0511 51.7443C53.0201 51.6912 53.0046 51.6366 53.0007 51.5771C52.9969 51.5192 53.0085 51.4629 53.0317 51.4082L53.9803 49.2662C54.0364 49.16 54.1274 49.0828 54.2571 49.0378C54.3849 48.9912 54.5146 48.988 54.6463 49.0266C54.7779 49.0652 54.8766 49.1359 54.9405 49.2404C55.0044 49.3434 55.016 49.4511 54.9792 49.5621L54.0306 51.7009C53.9939 51.7893 53.93 51.8617 53.839 51.918C53.7461 51.9727 53.6435 52 53.5312 52Z" fill="#44355C"/>
<path d="M82.7754 84C80.5191 85.6593 76.4734 89.4968 78.5982 94.539C81.4648 101.369 89.9004 102.172 90.1044 109.399C90.3084 116.626 91.7487 120.44 99.7623 120.24C107.778 120.041 112.505 116.225 115.373 120.44C118.131 124.487 130.904 133.322 143 123.596C117.65 120.296 94.1796 106.215 82.7754 84Z" fill="#444CE7"/>
<path d="M88.1142 129.913C84.3018 117.585 73.673 113.543 60.4402 109.5C45.67 104.988 58.6328 93.5197 49.209 83.0223C43.3326 76.4697 37.5356 75.1038 34 75C35.8665 97.0137 46.8885 118.284 65.0644 131.883C83.2284 145.949 109.027 151.146 130.471 143.418C132.698 142.623 134.875 141.706 137 140.664C109.768 125.366 91.7797 141.78 88.1142 129.913Z" fill="#444CE7"/>
<path d="M110.539 141C105.772 140.988 101.058 140.495 96.3925 139.521C81.6445 136.479 71.3538 129.698 71.2499 129.63C71.1886 129.588 71.1358 129.537 71.095 129.474C71.0541 129.413 71.0251 129.345 71.0115 129.272C70.9962 129.2 70.9962 129.125 71.0115 129.052C71.0251 128.979 71.0541 128.912 71.095 128.851C71.1358 128.788 71.1886 128.737 71.2499 128.695C71.313 128.654 71.3811 128.625 71.4543 128.61C71.5276 128.597 71.6008 128.597 71.674 128.61C71.7473 128.625 71.8154 128.652 71.8784 128.693C71.9789 128.763 82.1299 135.437 96.6684 138.427C105.186 140.18 113.52 140.344 121.443 138.916C131.342 137.128 140.626 132.832 149.059 126.147C149.117 126.095 149.181 126.056 149.254 126.03C149.329 126.005 149.404 125.996 149.483 126.001C149.559 126.008 149.633 126.029 149.701 126.066C149.771 126.101 149.828 126.149 149.878 126.21C149.926 126.271 149.961 126.339 149.98 126.413C150 126.488 150.006 126.564 149.994 126.64C149.983 126.716 149.958 126.787 149.915 126.853C149.874 126.92 149.823 126.974 149.759 127.018C141.188 133.826 131.727 138.198 121.636 140.014C117.967 140.675 114.267 141.003 110.539 141Z" fill="white"/>
<path d="M79.135 2C78.7779 2.10452 78.4242 2.21419 78.0704 2.31529C63.5322 6.98974 51.1741 18.0179 43.4977 31.301C40.9367 35.6961 38.8551 40.3123 37.2549 45.1478C35.6547 49.9834 34.5697 54.9337 34 59.9988C49.3885 60.2044 56.434 33.3898 57.5904 26.5923C58.8029 19.4675 71.5334 18.0401 77.397 12.9527C80.8577 9.93526 80.2285 5.29508 79.135 2Z" fill="#444CE7"/>
<path d="M66.1154 127C66.0353 127 65.9638 126.976 65.9007 126.925C65.1203 126.298 64.3314 125.65 63.5902 124.991C63.5254 124.928 63.4913 124.849 63.4879 124.757C63.4845 124.667 63.5135 124.587 63.5731 124.517C63.6345 124.449 63.7094 124.41 63.8014 124.401C63.8918 124.393 63.9735 124.417 64.0451 124.475C64.7897 125.124 65.5599 125.766 66.3318 126.385C66.4068 126.444 66.4494 126.523 66.4596 126.618C66.4698 126.712 66.4443 126.797 66.3847 126.872C66.3165 126.959 66.2262 127.002 66.1154 127ZM61.6102 123.055C61.5164 123.055 61.4363 123.024 61.3682 122.961C60.6491 122.269 59.9335 121.554 59.2399 120.83C59.1752 120.76 59.1445 120.678 59.1479 120.584C59.1513 120.49 59.1871 120.41 59.2553 120.346C59.3234 120.281 59.4035 120.248 59.4972 120.25C59.5927 120.252 59.6727 120.286 59.7392 120.352C60.4259 121.068 61.1364 121.777 61.8487 122.459C61.9169 122.527 61.9509 122.607 61.9509 122.704C61.9509 122.799 61.9169 122.881 61.8487 122.948C61.784 123.016 61.7039 123.052 61.6102 123.052V123.055ZM57.4712 118.723C57.3673 118.725 57.2804 118.686 57.2105 118.607C56.5545 117.856 55.9019 117.081 55.2748 116.3C55.2135 116.225 55.1896 116.14 55.1998 116.045C55.2101 115.951 55.2527 115.872 55.3276 115.813C55.4009 115.753 55.4861 115.728 55.5815 115.738C55.677 115.75 55.7536 115.792 55.815 115.867C56.442 116.639 57.0708 117.408 57.7319 118.152C57.795 118.224 57.8239 118.306 57.8171 118.401C57.8103 118.497 57.7728 118.575 57.7013 118.638C57.6348 118.694 57.5581 118.723 57.4712 118.723ZM53.7038 114.056C53.5879 114.054 53.4942 114.008 53.4243 113.914C52.8348 113.114 52.2503 112.285 51.6914 111.454C51.6386 111.374 51.6198 111.289 51.6386 111.195C51.6556 111.101 51.705 111.026 51.7834 110.973C51.8618 110.919 51.9487 110.902 52.0424 110.919C52.1361 110.937 52.2094 110.985 52.2639 111.064C52.8194 111.89 53.4005 112.708 53.9832 113.504C54.0412 113.58 54.0616 113.666 54.0463 113.761C54.0326 113.855 53.9866 113.93 53.9082 113.986C53.8486 114.034 53.7804 114.058 53.7038 114.056ZM50.3521 109.087C50.2226 109.085 50.1255 109.031 50.0556 108.923C49.5359 108.076 49.0196 107.206 48.5271 106.33C48.4777 106.248 48.4641 106.159 48.4879 106.064C48.5118 105.97 48.5663 105.899 48.6515 105.851C48.735 105.803 48.8253 105.793 48.9173 105.818C49.0111 105.846 49.0809 105.902 49.1269 105.989C49.6177 106.858 50.1289 107.72 50.6469 108.559C50.7184 108.674 50.7201 108.792 50.6537 108.91C50.5889 109.029 50.4867 109.087 50.3521 109.087ZM47.4247 103.866C47.2815 103.867 47.1776 103.806 47.1111 103.678C46.6562 102.795 46.2097 101.885 45.7838 100.976C45.7429 100.889 45.7395 100.802 45.7718 100.711C45.8042 100.623 45.8638 100.558 45.9507 100.517C46.0359 100.476 46.1246 100.473 46.2149 100.505C46.3052 100.538 46.3699 100.597 46.4108 100.682C46.8317 101.584 47.2747 102.485 47.7263 103.361C47.7723 103.446 47.7791 103.533 47.7501 103.625C47.7212 103.717 47.6649 103.784 47.5797 103.828C47.5303 103.852 47.4792 103.864 47.4247 103.866ZM44.8636 98.4365C44.712 98.4348 44.608 98.3649 44.5501 98.2252C44.1599 97.3084 43.7799 96.3695 43.4187 95.4356C43.3846 95.3453 43.388 95.2567 43.4272 95.1698C43.4647 95.0829 43.5294 95.0215 43.618 94.9875C43.7083 94.9534 43.7969 94.9551 43.8838 94.9943C43.9707 95.0335 44.0321 95.0982 44.0662 95.1868C44.4206 96.1292 44.7972 97.046 45.1874 97.9559C45.2232 98.0445 45.2232 98.1332 45.1874 98.2201C45.1516 98.3087 45.0885 98.3717 45.0016 98.4109C44.9573 98.4297 44.9113 98.4365 44.8636 98.4365ZM42.7166 92.8386C42.6417 92.8386 42.5735 92.8165 42.5139 92.7739C42.4525 92.7313 42.4099 92.6733 42.3861 92.6035C42.0725 91.6611 41.759 90.7017 41.4455 89.7407C41.4165 89.6486 41.425 89.5617 41.4693 89.4765C41.5153 89.393 41.5818 89.3368 41.6738 89.3078C41.7658 89.2789 41.8527 89.2874 41.9379 89.3334C42.0231 89.3777 42.0793 89.4458 42.1066 89.5362C42.3997 90.4785 42.7098 91.4481 43.0336 92.3802C43.0642 92.4706 43.0591 92.5592 43.0165 92.6461C42.9739 92.7313 42.9075 92.7892 42.8172 92.8199C42.7848 92.8318 42.7507 92.8369 42.7166 92.8386ZM40.9547 87.1045C40.8764 87.1028 40.8065 87.0789 40.7451 87.0312C40.6838 86.9835 40.6429 86.9221 40.6225 86.8472C40.3618 85.8792 40.113 84.8977 39.8846 83.9247C39.8625 83.831 39.8778 83.7441 39.9289 83.6623C39.9784 83.5822 40.0499 83.5311 40.1436 83.5089C40.2374 83.4867 40.3243 83.5021 40.4044 83.5515C40.4861 83.6026 40.5373 83.6742 40.5594 83.7679C40.786 84.7341 41.0297 85.7071 41.2904 86.6682C41.3143 86.7602 41.3023 86.8472 41.2546 86.9289C41.2069 87.0125 41.1388 87.0653 41.0467 87.0908C41.0161 87.0994 40.9854 87.1028 40.9547 87.1045ZM39.5762 81.2595C39.4944 81.2595 39.4212 81.234 39.3564 81.1812C39.2917 81.1283 39.2525 81.0619 39.2371 80.9801C39.0395 79.9883 38.864 78.9897 38.7072 78.0133C38.697 77.9213 38.7191 77.8378 38.7737 77.7645C38.8299 77.6912 38.9032 77.6469 38.9952 77.6316C39.0872 77.618 39.1707 77.6367 39.2457 77.6878C39.3223 77.7407 39.37 77.8122 39.3888 77.9042C39.5456 78.8739 39.7211 79.8622 39.9153 80.8455C39.9358 80.9392 39.9187 81.0261 39.8642 81.1062C39.8114 81.1863 39.7364 81.234 39.6427 81.2527L39.5762 81.2595ZM38.6356 75.3294C38.5453 75.3294 38.4687 75.3004 38.4022 75.2391C38.3374 75.1795 38.3 75.1045 38.2931 75.0159C38.0767 73.1755 38.0324 72.1155 38.0324 72.1087V71.9963C38.0273 71.9025 38.0563 71.8207 38.1159 71.7509C38.1773 71.681 38.254 71.6401 38.346 71.6316C38.4397 71.6265 38.5198 71.6537 38.5913 71.7151C38.6612 71.7764 38.7004 71.8531 38.7072 71.9451V72.0746C38.7072 72.0934 38.7515 73.1295 38.9645 74.9221C38.9747 75.0176 38.9509 75.1045 38.8878 75.1795C38.8265 75.2544 38.7481 75.2953 38.651 75.3038L38.6356 75.3294ZM38.3392 69.3311C38.2437 69.3294 38.1636 69.2953 38.0972 69.2255C38.0307 69.1573 37.9984 69.0755 38.0001 68.9801C38.0188 68.0088 38.0597 66.9931 38.1296 65.9622C38.1347 65.8668 38.1739 65.7884 38.2454 65.7253C38.3187 65.6623 38.4022 65.6333 38.4976 65.6401C38.5913 65.6452 38.6714 65.6844 38.7345 65.756C38.7975 65.8276 38.8265 65.9111 38.8197 66.0065C38.7549 67.0272 38.7106 68.0309 38.6919 68.992C38.6902 69.0857 38.6561 69.1658 38.5896 69.2306C38.5232 69.297 38.4431 69.3294 38.3494 69.3311H38.3392ZM38.7225 63.3379H38.6885C38.5913 63.3311 38.513 63.2902 38.4499 63.2152C38.3886 63.1403 38.363 63.0551 38.3749 62.9579C38.4772 61.9662 38.6033 60.9591 38.7481 59.9673C38.7617 59.8719 38.806 59.7969 38.8827 59.739C38.9594 59.6827 39.0446 59.6606 39.1383 59.6742C39.2337 59.6861 39.3087 59.7321 39.3666 59.8088C39.4246 59.8838 39.445 59.9707 39.4331 60.0644C39.2917 61.0494 39.1656 62.048 39.0616 63.0312C39.0514 63.1164 39.0156 63.1863 38.9543 63.2459C38.8912 63.3038 38.818 63.3345 38.7328 63.3379H38.7225ZM39.583 57.3959H39.52C39.4314 57.3754 39.3615 57.326 39.3121 57.2493C39.2627 57.1743 39.2457 57.0908 39.2627 57.0005C39.445 56.0122 39.6461 55.017 39.8659 54.0474C39.9 53.9775 39.9528 53.9264 40.0227 53.8923C40.0925 53.8582 40.1641 53.848 40.2408 53.8633C40.3175 53.8787 40.3805 53.9145 40.4333 53.9724C40.4844 54.0303 40.5134 54.0985 40.5185 54.1752C40.3021 55.1397 40.101 56.1212 39.9221 57.1045C39.9085 57.1863 39.871 57.2544 39.8097 57.309C39.7466 57.3635 39.6751 57.3925 39.5933 57.3959H39.583ZM40.8951 51.5424C40.8661 51.5475 40.8372 51.5475 40.8082 51.5424C40.7145 51.5186 40.6446 51.4657 40.5969 51.3839C40.5475 51.3004 40.5356 51.2135 40.5594 51.1215C40.8167 50.1485 41.0962 49.1755 41.3875 48.2246C41.4165 48.1326 41.4727 48.0644 41.5562 48.0201C41.6414 47.9741 41.7283 47.9656 41.8203 47.9946C41.9107 48.0218 41.9788 48.0781 42.0248 48.1616C42.0691 48.2451 42.0776 48.3337 42.0504 48.4257C41.759 49.3663 41.483 50.3342 41.2274 51.297C41.2069 51.3686 41.166 51.4265 41.1064 51.4725C41.0467 51.5169 40.9803 51.5407 40.9053 51.5424H40.8951ZM42.657 45.81C42.6178 45.81 42.5803 45.8031 42.5428 45.7912C42.4525 45.7588 42.3878 45.7009 42.3452 45.614C42.3043 45.5271 42.2992 45.4402 42.3298 45.3482C42.6655 44.4075 43.0199 43.4652 43.3914 42.5245C43.4016 42.4734 43.4204 42.4274 43.451 42.3848C43.4817 42.3439 43.5192 42.3098 43.5652 42.286C43.6112 42.2604 43.6589 42.2468 43.71 42.2434C43.7629 42.2416 43.8123 42.2485 43.86 42.2689C43.9077 42.2877 43.9503 42.3166 43.9844 42.3541C44.0202 42.3933 44.044 42.4359 44.0594 42.4853C44.0747 42.5347 44.0798 42.5859 44.073 42.637C44.0645 42.6881 44.0474 42.7341 44.0185 42.7784C43.6555 43.6918 43.3028 44.6324 42.9705 45.5714C42.9228 45.7213 42.8223 45.7997 42.6655 45.81H42.657ZM44.879 40.2411C44.8295 40.2428 44.7835 40.2326 44.7375 40.2104C44.6523 40.1712 44.591 40.1065 44.5586 40.0178C44.5245 39.9292 44.5262 39.8423 44.5654 39.7554C44.9795 38.8352 45.4123 37.9184 45.8587 37.034C45.9013 36.9488 45.9678 36.8909 46.0598 36.8602C46.1501 36.8295 46.2387 36.8364 46.3239 36.8807C46.4091 36.9233 46.4653 36.9897 46.496 37.08C46.525 37.1704 46.5199 37.259 46.4773 37.3442C46.0342 38.2201 45.6048 39.1266 45.1959 40.0383C45.138 40.1712 45.0357 40.2394 44.8892 40.2411H44.879ZM47.5695 34.8869C47.5099 34.8869 47.4553 34.8733 47.4042 34.8426C47.3207 34.7966 47.2662 34.7267 47.2389 34.6347C47.2134 34.5427 47.2219 34.4558 47.2679 34.3723C47.7587 33.4964 48.2732 32.6239 48.7981 31.7753C48.8475 31.6952 48.919 31.6424 49.0128 31.6202C49.1048 31.5998 49.1917 31.6134 49.2735 31.6645C49.3553 31.714 49.4064 31.7855 49.4285 31.8793C49.449 31.9713 49.4353 32.0582 49.3842 32.14C48.8662 32.9784 48.3584 33.844 47.8745 34.7114C47.8081 34.8239 47.7109 34.8835 47.5797 34.8869H47.5695ZM50.7287 29.7952C50.5889 29.7935 50.4884 29.7321 50.4236 29.6094C50.3589 29.4867 50.3657 29.3675 50.4424 29.2516C51.0081 28.4268 51.6011 27.6038 52.2009 26.8063C52.2588 26.7296 52.3355 26.6836 52.4309 26.6699C52.5263 26.6563 52.6132 26.6768 52.6899 26.7347C52.7683 26.7926 52.8143 26.8693 52.8279 26.9647C52.8416 27.0602 52.8194 27.1471 52.7632 27.2238C52.1685 28.0127 51.5823 28.829 51.0234 29.6452C50.9553 29.7458 50.8599 29.7952 50.7372 29.7952H50.7287ZM54.3393 25.0136C54.2559 25.0153 54.1826 24.9897 54.1195 24.9352C54.0463 24.8756 54.0054 24.7972 53.9969 24.7017C53.9866 24.6063 54.0139 24.5228 54.0752 24.4495C54.7023 23.6827 55.3771 22.9176 56.0535 22.1797C56.1166 22.1099 56.1967 22.0724 56.2938 22.0673C56.3892 22.0639 56.4727 22.0928 56.5426 22.1576C56.6124 22.2223 56.6499 22.3024 56.655 22.3979C56.6584 22.4933 56.6295 22.5768 56.5647 22.6484C55.8951 23.3794 55.2373 24.1326 54.6052 24.8926C54.5387 24.971 54.4518 25.0119 54.3479 25.0136H54.3393ZM58.3914 20.5881C58.2397 20.5864 58.1341 20.5149 58.0761 20.3734C58.0182 20.2337 58.0404 20.1076 58.146 19.9985C58.8566 19.2914 59.591 18.5944 60.3441 17.923C60.4157 17.8599 60.4975 17.8293 60.5929 17.8344C60.6883 17.8395 60.7684 17.877 60.8331 17.9468C60.8962 18.0184 60.9269 18.1002 60.9218 18.1956C60.9166 18.2911 60.8792 18.3712 60.8093 18.4342C60.0749 19.1005 59.349 19.7906 58.6487 20.4876C58.5771 20.5575 58.4919 20.5916 58.3914 20.5881ZM62.8285 16.5666C62.7194 16.5666 62.6308 16.5257 62.561 16.4422C62.4996 16.3689 62.4741 16.2837 62.4843 16.1883C62.4928 16.0928 62.5337 16.0161 62.6087 15.9548C63.3772 15.3277 64.178 14.6989 64.9721 14.0906C65.0487 14.0343 65.1356 14.0122 65.2294 14.0258C65.3248 14.0394 65.3998 14.0837 65.4594 14.1604C65.5156 14.2354 65.5361 14.3223 65.5224 14.416C65.5088 14.5098 65.4645 14.5847 65.3895 14.6427C64.5955 15.2391 63.8202 15.8611 63.0483 16.4882C62.9852 16.5461 62.912 16.5751 62.8285 16.5768V16.5666ZM67.6149 12.9676C67.4922 12.9693 67.3968 12.9182 67.3303 12.8159C67.2758 12.7375 67.2571 12.6523 67.2741 12.5586C67.2912 12.4649 67.3389 12.3899 67.4173 12.3354C68.2369 11.7764 69.0854 11.2209 69.9289 10.691C70.0107 10.6415 70.0976 10.6262 70.1896 10.6484C70.2833 10.6705 70.3549 10.7216 70.4043 10.8017C70.4554 10.8835 70.469 10.9704 70.4469 11.0641C70.4264 11.1562 70.3753 11.2277 70.2935 11.2789C69.4484 11.8054 68.61 12.3524 67.8006 12.9079C67.7461 12.9488 67.6848 12.971 67.6149 12.9761V12.9676ZM72.6944 9.80314C72.5547 9.80655 72.4508 9.74861 72.3809 9.62762C72.3349 9.54412 72.323 9.45551 72.3502 9.36349C72.3758 9.27147 72.4303 9.20331 72.5138 9.1556C73.376 8.66653 74.2689 8.18599 75.16 7.72759C75.2453 7.68499 75.3321 7.67647 75.4242 7.70544C75.5145 7.73441 75.5826 7.79064 75.6269 7.87585C75.6695 7.96105 75.6763 8.04966 75.6474 8.13998C75.6184 8.23029 75.5605 8.29845 75.477 8.34276C74.5909 8.79774 73.71 9.28511 72.8529 9.75543C72.8052 9.78951 72.7524 9.80825 72.6944 9.81166V9.80314ZM78.0329 7.06471C77.9511 7.06642 77.8796 7.04086 77.8148 6.98973C77.7518 6.93861 77.7126 6.87386 77.6938 6.79377C77.6768 6.71538 77.687 6.6387 77.7228 6.56542C77.7586 6.49385 77.8148 6.44103 77.8881 6.40695C78.7895 5.98604 79.7113 5.57707 80.6383 5.18854C80.6809 5.16128 80.7269 5.14594 80.778 5.13912C80.8274 5.13231 80.8768 5.13742 80.9246 5.15276C80.9723 5.16639 81.0166 5.19195 81.0523 5.22603C81.0898 5.26011 81.1188 5.29931 81.1393 5.34702C81.158 5.39303 81.1682 5.44074 81.1665 5.49186C81.1648 5.54128 81.1529 5.5907 81.1307 5.63501C81.1069 5.68102 81.0762 5.7185 81.037 5.75088C80.9978 5.78155 80.9535 5.80371 80.9041 5.81564C79.9874 6.20246 79.0706 6.60802 78.1795 7.02211C78.1318 7.0579 78.0789 7.08175 78.0193 7.09027L78.0329 7.06471ZM83.5299 4.7523C83.4464 4.7523 83.3714 4.72504 83.3084 4.67221C83.2436 4.61939 83.2045 4.55122 83.1891 4.46943C83.1738 4.38763 83.1874 4.30925 83.2283 4.23597C83.2692 4.1644 83.3288 4.11328 83.4072 4.08431C84.3308 3.73157 85.2901 3.39246 86.2324 3.06699C86.3227 3.03631 86.4113 3.04142 86.4965 3.08403C86.5834 3.12663 86.6413 3.19309 86.672 3.2834C86.7027 3.37372 86.6976 3.46233 86.655 3.54753C86.6124 3.63273 86.5459 3.69238 86.4556 3.72305C85.5133 4.0366 84.571 4.38252 83.6492 4.73015C83.61 4.74549 83.5708 4.7523 83.5299 4.7523ZM89.2126 2.82501C89.1274 2.8216 89.0541 2.79263 88.9911 2.7364C88.9298 2.68016 88.8923 2.6103 88.8786 2.5268C88.8667 2.445 88.882 2.36662 88.9264 2.29505C88.9707 2.22348 89.032 2.17406 89.1121 2.14679L89.5534 2.01558C89.6454 1.98831 89.734 1.99684 89.8175 2.04114C89.901 2.08715 89.9573 2.15531 89.9845 2.24733C90.0118 2.33935 90.0033 2.42626 89.9573 2.50976C89.9112 2.59496 89.8431 2.64949 89.7528 2.67676L89.3132 2.80967C89.2791 2.8199 89.2467 2.82501 89.2126 2.82501Z" fill="white"/>
<path d="M29.0405 101.793L28.9807 99.272C28.9773 99.0771 29.0183 98.8924 29.1053 98.718C29.1906 98.5419 29.3135 98.3982 29.4705 98.2837L31.5083 96.8097C31.6909 96.6763 31.8258 96.507 31.9111 96.2984C31.9964 96.0898 32.0203 95.8743 31.9828 95.652C31.9452 95.4297 31.8531 95.2348 31.7029 95.0655C31.5544 94.8962 31.3718 94.7799 31.1568 94.7149L28.7486 93.9899C28.5609 93.9352 28.3987 93.8377 28.2588 93.7026C28.1206 93.5658 28.0216 93.4034 27.9618 93.2187L27.1938 90.8247C27.1256 90.6093 27.0061 90.4297 26.8354 90.2827C26.663 90.1373 26.4668 90.0467 26.2432 90.0142C26.0213 89.98 25.8063 90.0074 25.5998 90.098C25.3933 90.1869 25.226 90.3237 25.098 90.5084L23.6661 92.5792C23.5569 92.7399 23.4152 92.8647 23.2428 92.9554C23.0705 93.046 22.8861 93.0905 22.6916 93.0887H20.1759C19.9541 93.0905 19.7475 93.1503 19.5581 93.2683C19.3687 93.3846 19.2236 93.5436 19.1246 93.7437C19.0256 93.9437 18.9847 94.1541 19.0051 94.3764C19.0239 94.5987 19.1007 94.8004 19.2321 94.9783L20.7579 96.9824C20.8757 97.138 20.9508 97.3107 20.9832 97.5022C21.0156 97.6954 21.002 97.8835 20.9405 98.0682L20.1572 100.462C20.0872 100.678 20.0786 100.895 20.1315 101.114C20.1845 101.333 20.292 101.521 20.4541 101.678C20.6145 101.837 20.804 101.94 21.0241 101.989C21.2443 102.037 21.4611 102.025 21.6727 101.95L24.0501 101.131C24.2327 101.066 24.4222 101.047 24.6133 101.076C24.8062 101.105 24.9802 101.177 25.1373 101.291L27.1597 102.772C27.3406 102.904 27.5437 102.979 27.769 102.996C27.9926 103.013 28.2042 102.971 28.4039 102.866C28.6035 102.762 28.7606 102.613 28.8749 102.42C28.9893 102.227 29.0456 102.017 29.0405 101.793Z" fill="#F79009"/>
<path d="M32.8314 105.538L33.2826 107.026C33.3582 107.272 33.5331 107.438 33.8055 107.525L35.4615 108.042C35.6086 108.089 35.7279 108.167 35.8253 108.276C35.9207 108.382 35.9764 108.504 35.9942 108.64C36.0121 108.775 35.9883 108.906 35.9227 109.029C35.8571 109.153 35.7597 109.253 35.6304 109.328L34.1653 110.164C33.9268 110.303 33.8035 110.499 33.7995 110.752L33.7478 112.294C33.7439 112.432 33.6981 112.559 33.6127 112.674C33.5252 112.79 33.4119 112.875 33.2687 112.934C33.1256 112.992 32.9765 113.011 32.8194 112.994C32.6644 112.976 32.5252 112.924 32.404 112.837L31.0382 111.874C30.8116 111.713 30.5611 111.668 30.2828 111.741L28.597 112.175C28.4459 112.216 28.2928 112.217 28.1398 112.181C27.9867 112.144 27.8555 112.074 27.7501 111.971C27.6428 111.868 27.5752 111.748 27.5473 111.61C27.5175 111.474 27.5354 111.34 27.595 111.211L28.2272 109.771C28.3286 109.534 28.2988 109.31 28.1358 109.099L27.1438 107.813C27.0543 107.7 27.0066 107.572 27.0006 107.435C26.9947 107.297 27.0305 107.166 27.108 107.046C27.1855 106.925 27.2929 106.833 27.432 106.766C27.5712 106.7 27.7183 106.67 27.8773 106.679L29.6307 106.763C29.919 106.777 30.1516 106.683 30.3265 106.48L31.4 105.259C31.4994 105.156 31.6227 105.083 31.7678 105.039C31.9129 104.995 32.062 104.988 32.2131 105.018C32.3622 105.048 32.4934 105.109 32.6047 105.201C32.7161 105.295 32.7916 105.407 32.8314 105.538Z" fill="#DC6803"/>
<path d="M16.5924 113.409L16.7939 114.527C16.8256 114.711 16.9033 114.835 17.0242 114.897L17.7569 115.291C17.8995 115.368 17.9801 115.518 17.9973 115.743C18.0132 115.965 17.9585 116.138 17.8304 116.261L17.1783 116.888C17.0717 116.993 17.0156 117.14 17.0113 117.331L16.9854 118.478C16.9767 118.701 16.9048 118.857 16.768 118.947C16.6313 119.037 16.5046 119.013 16.388 118.872L15.7863 118.146C15.687 118.024 15.5761 117.99 15.4523 118.044L14.7067 118.371C14.5613 118.435 14.436 118.384 14.3338 118.219C14.2302 118.052 14.2057 117.864 14.2604 117.654L14.5426 116.577C14.5886 116.397 14.5742 116.231 14.5023 116.072L14.0675 115.13C13.9826 114.944 13.9783 114.751 14.0517 114.557C14.1266 114.362 14.2403 114.27 14.3914 114.283L15.1659 114.345C15.294 114.353 15.3976 114.283 15.4754 114.133L15.9504 113.217C16.0425 113.037 16.1634 112.968 16.3117 113.013C16.4614 113.058 16.555 113.191 16.5924 113.409Z" fill="#FEDF89"/>
<path d="M23.894 111.005C24.0236 110.993 24.1533 111.002 24.2805 111.041C24.4078 111.077 24.523 111.137 24.6238 111.219C24.7271 111.303 24.8111 111.401 24.8759 111.516C24.9384 111.632 24.9792 111.757 24.9936 111.886C25.008 112.018 24.9984 112.148 24.9624 112.275C24.9264 112.4 24.8663 112.516 24.7847 112.621C24.7031 112.725 24.6046 112.809 24.4894 112.873C24.3741 112.936 24.2517 112.977 24.1196 112.994C23.9876 113.008 23.8603 112.998 23.7331 112.962C23.6059 112.929 23.4882 112.869 23.385 112.789C23.2817 112.708 23.1953 112.609 23.1305 112.494C23.0656 112.379 23.0248 112.256 23.008 112.127C22.9912 111.992 23.0008 111.86 23.0368 111.733C23.0728 111.603 23.1329 111.485 23.2169 111.38C23.2985 111.274 23.3994 111.19 23.517 111.125C23.6347 111.06 23.7595 111.019 23.894 111.005Z" fill="#DC6803"/>
<path d="M22.8706 105.004C23.0027 104.996 23.1323 105 23.2596 105.017C23.3868 105.035 23.5045 105.064 23.6101 105.104C23.7134 105.145 23.7998 105.194 23.867 105.251C23.9319 105.309 23.9727 105.37 23.9919 105.436C24.0087 105.501 23.9991 105.566 23.9655 105.631C23.9295 105.695 23.8718 105.753 23.7902 105.805C23.711 105.858 23.6125 105.901 23.4973 105.934C23.382 105.967 23.2596 105.988 23.1275 105.996C22.9955 106.004 22.8658 106 22.7385 105.983C22.6113 105.966 22.4936 105.937 22.388 105.896C22.2847 105.855 22.1983 105.806 22.1311 105.749C22.0663 105.691 22.0254 105.63 22.0086 105.564C21.9918 105.499 21.999 105.434 22.035 105.369C22.0687 105.305 22.1263 105.248 22.2079 105.195C22.2872 105.142 22.3856 105.1 22.5008 105.066C22.6161 105.034 22.7385 105.012 22.8706 105.004Z" fill="#DC6803"/>
</svg>
