<svg width="141" height="25" viewBox="0 0 141 25" fill="none" xmlns="http://www.w3.org/2000/svg">
<mask id="mask0_240_120" style="mask-type:luminance" maskUnits="userSpaceOnUse" x="0" y="0" width="28" height="25">
<path d="M0 0H27.2727V25H0V0Z" fill="white"/>
</mask>
<g mask="url(#mask0_240_120)">
<path d="M22.1643 23.2432C22.1981 23.3987 22.2252 23.5239 22.2522 23.6473C22.2708 23.7285 22.2911 23.8097 22.303 23.8908C22.3435 24.2087 22.2285 24.4556 21.9546 24.623C21.6164 24.826 21.2494 24.9207 20.8554 24.9071C20.5764 24.9021 20.3008 24.8733 20.037 24.7583C19.9254 24.7093 19.785 24.7194 19.6582 24.7194C18.0281 24.7059 16.3962 24.7008 14.7678 24.6839C13.2645 24.6687 11.7628 24.6518 10.2612 24.6163C8.09333 24.5672 5.92714 24.5064 3.75925 24.5469C2.92051 24.5622 2.08345 24.5977 1.2464 24.618C0.984293 24.6247 0.722185 24.618 0.460077 24.6061C0.370453 24.6044 0.28252 24.5858 0.199661 24.552C0.126947 24.5148 0.0795985 24.4556 0.0559241 24.3778C0.0322501 24.3 0.0390141 24.2256 0.0762163 24.1546C0.143857 24.0379 0.230099 23.9365 0.33156 23.8485C0.781371 23.4664 1.29882 23.2313 1.88222 23.1451C1.90252 23.1434 1.92112 23.1383 1.93972 23.1332C1.95325 23.1265 1.96677 23.1163 1.97861 23.1062C1.87208 22.7206 2.05809 22.4264 2.3202 22.1744C2.77508 21.7348 3.32297 21.5014 3.96556 21.52C3.98416 21.5183 4.00107 21.5166 4.01798 21.5116C4.02474 21.4963 4.0332 21.4845 4.03151 21.4744C3.94019 20.8977 4.2209 20.5003 4.66733 20.1993C5.00722 19.9694 5.40123 19.8747 5.81046 19.8527C6.25519 19.8307 6.68979 19.9051 7.11761 20.0184C7.16158 20.0302 7.20386 20.0421 7.24782 20.0522C7.25797 20.0522 7.2715 20.0471 7.29348 20.0421C7.30024 19.944 7.31715 19.8459 7.3459 19.7495C7.42707 19.528 7.52853 19.3149 7.64521 19.1103C7.90055 18.6876 8.23707 18.3409 8.65137 18.0737C8.67842 18.0568 8.7021 18.0365 8.73084 18.0162C8.62093 17.837 8.5127 17.6645 8.40955 17.4903C7.64014 16.1663 7.11085 14.7509 6.91469 13.2323C6.44121 9.55776 7.45582 6.34483 10.0076 3.65273C11.7747 1.78923 13.9662 0.678227 16.4875 0.221652C17.5055 0.0424041 18.532 -0.00156207 19.5618 0.0880617C21.1683 0.216579 22.6902 0.646097 24.1259 1.37662C24.3017 1.46624 24.4827 1.55079 24.618 1.70298C24.645 1.73511 24.6687 1.77232 24.711 1.82812C24.5452 1.83319 24.4032 1.84165 24.2595 1.84165C23.715 1.8315 23.1738 1.86194 22.6344 1.92958C20.6593 2.20691 18.8989 2.96956 17.3922 4.28009C15.8466 5.62107 14.8287 7.29349 14.4194 9.30411C13.9087 11.8051 14.3991 14.1252 15.8348 16.2254C17.2975 18.3663 19.3403 19.67 21.8616 20.2365C23.6625 20.6288 25.4432 20.5494 27.2018 19.9998C27.2255 19.993 27.2492 19.9727 27.2729 19.9744C27.3185 19.9795 27.3642 19.988 27.4081 19.9998C27.3929 20.037 27.3743 20.0742 27.3506 20.1063C26.4612 21.0161 25.428 21.728 24.3 22.3046C24.016 22.4501 23.7183 22.5684 23.4258 22.6953C23.0098 22.8762 22.5955 23.0555 22.1643 23.2432ZM3.18431 23.5374L3.19276 23.5932C3.16401 23.6135 3.13189 23.627 3.09806 23.6372C2.78354 23.6727 2.48084 23.627 2.22719 23.4275C2.12911 23.3463 2.0175 23.3159 1.89237 23.3362C1.46623 23.3954 1.07561 23.5459 0.720494 23.7843C0.571684 23.8841 0.429639 23.9923 0.292667 24.109C0.230099 24.1614 0.169222 24.2341 0.201352 24.3254C0.236863 24.4269 0.33156 24.388 0.400892 24.3829C1.13479 24.3491 1.87039 24.3102 2.60429 24.2747C4.31052 24.1901 6.01507 24.2037 7.72131 24.2358C8.88473 24.2578 10.0481 24.3068 11.2099 24.3288C12.8282 24.3609 14.4448 24.3677 16.0614 24.4083C17.6408 24.4489 19.2168 24.5182 20.7963 24.5791C20.8453 24.5841 20.8926 24.596 20.9383 24.618C21.1226 24.6991 21.2985 24.7296 21.4997 24.6433C22.0003 24.4286 22.1237 24.1766 21.9461 23.6592C21.7094 22.9658 21.2292 22.5093 20.5629 22.2336C20.1266 22.0493 19.6751 21.9986 19.2084 22.0814C19.0173 22.1153 18.8279 22.1626 18.7839 22.3993C18.7772 22.4179 18.7687 22.4349 18.7586 22.4501C18.7434 22.4856 18.7163 22.5076 18.6808 22.5194C18.6453 22.5312 18.6115 22.5262 18.5776 22.5076C18.5286 22.4771 18.5015 22.4332 18.4965 22.3774C18.4948 22.2979 18.5151 22.2269 18.5607 22.1626C18.6757 22.0408 18.6453 21.9259 18.5895 21.794C18.1972 20.8605 17.005 20.3481 16.0513 20.6982C15.9329 20.7286 15.8669 20.8047 15.8534 20.9248C15.8213 21.1176 15.73 21.2731 15.5778 21.3949C15.5423 21.4152 15.5051 21.427 15.4645 21.4338C15.4374 21.3272 15.5084 21.2883 15.549 21.2359C15.6099 21.175 15.6234 21.1057 15.5913 21.0262C15.5456 20.9197 15.5609 20.8233 15.6387 20.7354C15.7181 20.6441 15.7097 20.5494 15.6877 20.4479C15.593 20.0032 15.3765 19.6379 14.9792 19.3995C14.3586 19.0291 13.6889 18.9361 12.9838 19.0697C12.8637 19.0917 12.7673 19.1458 12.7267 19.2693C12.7047 19.3318 12.6625 19.3758 12.5999 19.3572C12.5458 19.3386 12.5018 19.3065 12.4697 19.2591C12.4223 19.178 12.4274 19.0985 12.4849 19.0224C12.5136 18.9767 12.5492 18.9328 12.5796 18.8905C12.512 18.7214 12.4037 18.5861 12.2549 18.4813C12.1213 18.3832 11.9793 18.2986 11.8288 18.2259C11.1727 17.9317 10.4861 17.7998 9.77251 17.908C8.67842 18.0737 7.95805 18.7298 7.49809 19.7056C7.42876 19.8391 7.40847 19.9778 7.43722 20.1266C7.52853 20.179 7.61646 20.2365 7.70101 20.2991C7.7602 20.3481 7.80755 20.4073 7.84137 20.4767C7.85151 20.5257 7.84137 20.568 7.81093 20.6069C7.79571 20.6255 7.73145 20.6069 7.69256 20.5967C7.67058 20.59 7.65536 20.5612 7.63506 20.5494C7.50486 20.4716 7.38141 20.3752 7.23768 20.3228C6.83014 20.1773 6.41077 20.1029 5.97787 20.0996C5.61261 20.0894 5.26595 20.1638 4.9362 20.3228C4.76879 20.4006 4.62674 20.5122 4.51006 20.6576C4.39338 20.8013 4.31391 20.9637 4.27332 21.1446C4.21245 21.3915 4.28347 21.5352 4.49654 21.6739C4.56418 21.7212 4.61998 21.7804 4.66226 21.8498C4.69777 21.9191 4.68255 21.9749 4.6166 22.0172C4.55234 22.0578 4.49484 22.0493 4.4475 21.9884C4.2767 21.7568 4.03151 21.7229 3.77954 21.7331C3.15894 21.7568 2.66855 22.0392 2.29483 22.5296C2.24072 22.609 2.19844 22.6936 2.16631 22.7849C2.12235 22.8931 2.12911 22.998 2.18661 23.1011C2.26608 23.2398 2.3574 23.3784 2.52143 23.4292C2.67869 23.4748 2.83934 23.5103 3.00337 23.5357C3.06424 23.5408 3.12343 23.5425 3.18431 23.5374ZM9.27535 6.94345C9.31425 6.85382 9.3413 6.79971 9.3599 6.74391C9.78773 5.47226 10.5774 4.45427 11.5836 3.59185C11.9827 3.25872 12.4206 2.98816 12.8992 2.78185C12.9567 2.7548 13.0345 2.73958 13.0125 2.65334C12.9922 2.56878 12.9127 2.57555 12.8519 2.59077C12.747 2.61444 12.6439 2.64657 12.5441 2.69054C12.1399 2.87317 11.7713 3.1116 11.4365 3.40076C10.8108 3.9402 10.3103 4.58279 9.87735 5.28118C9.60003 5.72253 9.39372 6.19433 9.25675 6.69656C9.23815 6.75743 9.19418 6.82338 9.27535 6.94345ZM10.5064 6.07088L10.5453 6.07595L10.6062 5.94575C10.7026 5.74451 10.777 5.53145 10.897 5.34374C11.2268 4.82629 11.592 4.3359 12.1129 3.98586C12.1518 3.95542 12.1721 3.91483 12.1704 3.8641C12.1501 3.79646 12.0757 3.79646 12.0249 3.82521C11.9404 3.86749 11.8626 3.9216 11.7916 3.98417C11.3164 4.43905 10.9156 4.94805 10.6349 5.54328C10.5774 5.67857 10.5301 5.81723 10.4946 5.95927C10.4895 5.99648 10.4946 6.03537 10.5064 6.07088ZM24.1073 20.8115L24.0785 20.7743C24.0261 20.803 23.9703 20.8267 23.9196 20.8588C23.671 21.0144 23.419 21.1683 23.1772 21.3323C22.9438 21.4896 22.7223 21.6587 22.494 21.8295C22.4298 21.8785 22.308 21.9343 22.3858 22.0358C22.4551 22.1305 22.538 22.0307 22.5972 21.9867C23.0757 21.6333 23.5509 21.2748 24.0227 20.9146C24.0548 20.8842 24.0836 20.8487 24.1073 20.8115ZM24.3964 21.1209L24.3761 21.0939C24.3592 21.0939 24.3372 21.0905 24.3237 21.099C23.9466 21.3577 23.5678 21.6147 23.1924 21.8768C23.1434 21.9191 23.0994 21.9664 23.0622 22.0189C23.118 22.1051 23.1755 22.0882 23.2246 22.0578C23.2837 22.0206 23.3395 21.9817 23.3953 21.9377C23.698 21.6976 24.0007 21.4558 24.3051 21.2122C24.3372 21.1835 24.3677 21.1531 24.3964 21.1192V21.1209ZM25.0458 20.9671C24.968 20.9637 24.9443 20.9535 24.9342 20.962C24.6501 21.1801 24.3694 21.3983 24.0904 21.6215C24.0515 21.6553 24.0244 21.6976 24.0109 21.7466C23.999 21.7821 24.0075 21.8109 24.0346 21.8329C24.0616 21.8565 24.092 21.8599 24.1242 21.843C24.1529 21.8278 24.1783 21.8092 24.2003 21.7855C24.4319 21.5758 24.6636 21.3644 24.8919 21.1514C24.9477 21.0939 24.9984 21.0313 25.0458 20.9671ZM9.05045 7.5539L9.11471 7.55898C9.14683 7.49472 9.17051 7.42538 9.18573 7.35436C9.1908 7.32054 9.14345 7.27996 9.11809 7.24106C9.08934 7.26812 9.03861 7.29349 9.03692 7.32223C9.03523 7.40002 9.0403 7.47781 9.05045 7.5539Z" fill="#6172F3"/>
</g>
<path d="M39.2033 17.7112C38.3189 17.7112 37.4616 17.603 36.633 17.3865C35.8027 17.1667 35.1263 16.8758 34.6038 16.514L35.6184 14.2345C36.1054 14.5591 36.6702 14.8213 37.3162 15.0191C37.9604 15.2136 38.5946 15.31 39.2169 15.31C40.4023 15.31 40.9958 15.0157 40.9958 14.4239C40.9958 14.1127 40.8267 13.8827 40.4885 13.7339C40.1503 13.5817 39.6058 13.4211 38.8584 13.2537C38.0365 13.0778 37.3517 12.8884 36.8021 12.6855C36.2508 12.4826 35.7773 12.1579 35.3816 11.7115C34.9893 11.265 34.7932 10.663 34.7932 9.90547C34.7932 9.23921 34.9724 8.6389 35.3343 8.10622C35.6995 7.57017 36.2424 7.14573 36.9644 6.83458C37.6899 6.52343 38.576 6.36786 39.6227 6.36786C40.3397 6.36786 41.0448 6.44903 41.7399 6.61137C42.4382 6.77032 43.0521 7.00368 43.5797 7.31483L42.6327 9.60785C41.5944 9.04981 40.5866 8.7691 39.6092 8.7691C38.9953 8.7691 38.5489 8.86042 38.2699 9.03967C37.9892 9.22061 37.8505 9.45735 37.8505 9.74989C37.8505 10.0391 38.0145 10.2572 38.3443 10.406C38.6774 10.5514 39.2135 10.7002 39.9541 10.8524C40.7827 11.0334 41.471 11.2245 42.0172 11.4274C42.5617 11.6303 43.0335 11.9533 43.4309 12.3946C43.8316 12.8326 44.0329 13.4329 44.0329 14.1939C44.0329 14.8483 43.8502 15.4419 43.485 15.9728C43.1231 16.5004 42.5786 16.9232 41.8481 17.2377C41.1209 17.5522 40.2399 17.7112 39.2033 17.7112Z" fill="#6172F3"/>
<path d="M52.7627 13.2874C52.7627 13.311 52.7458 13.5545 52.7154 14.0179H46.5736C46.6987 14.4558 46.9406 14.7924 47.2974 15.0257C47.6575 15.2608 48.109 15.3774 48.6502 15.3774C49.056 15.3774 49.4044 15.3216 49.6986 15.2083C49.9962 15.0917 50.2955 14.9023 50.5982 14.6402L52.154 16.2635C51.3321 17.1801 50.1332 17.6366 48.5555 17.6366C47.5679 17.6366 46.6987 17.4506 45.9513 17.0752C45.2022 16.7015 44.6222 16.1824 44.2129 15.5195C43.802 14.8532 43.5974 14.0974 43.5974 13.2535C43.5974 12.4249 43.797 11.6809 44.1994 11.0214C44.6002 10.3585 45.1531 9.84106 45.8566 9.46565C46.5635 9.09194 47.3599 8.90424 48.2443 8.90424C49.0831 8.90424 49.844 9.0801 50.5306 9.43183C51.2205 9.78018 51.7633 10.2824 52.1607 10.9402C52.5615 11.5997 52.7627 12.381 52.7627 13.2874ZM48.2579 11.0146C47.8013 11.0146 47.4208 11.1465 47.1147 11.4069C46.807 11.664 46.6108 12.0157 46.5263 12.4621H49.9895C49.9032 12.0157 49.7071 11.664 49.401 11.4069C49.0932 11.1465 48.7127 11.0146 48.2579 11.0146Z" fill="#6172F3"/>
<path d="M58.2622 8.90435C59.0333 8.90435 59.7317 9.0836 60.359 9.43871C60.9847 9.79045 61.4836 10.2978 61.8539 10.9606C62.2226 11.6201 62.4086 12.3845 62.4086 13.2536C62.4086 14.1296 62.2226 14.9007 61.8539 15.567C61.4836 16.2298 60.9847 16.7422 60.359 17.1024C59.7317 17.4592 59.0333 17.6368 58.2622 17.6368C57.1529 17.6368 56.3226 17.3104 55.773 16.656V17.4947H52.9524V5.92816H55.9083V9.78368C56.4799 9.19859 57.2645 8.90435 58.2622 8.90435ZM57.6399 15.2829C58.1573 15.2829 58.5835 15.1053 58.9183 14.7485C59.2514 14.3883 59.4188 13.8895 59.4188 13.2536C59.4188 12.6314 59.2514 12.1443 58.9183 11.7926C58.5835 11.4375 58.1573 11.2582 57.6399 11.2582C57.1208 11.2582 56.6946 11.4375 56.3615 11.7926C56.0267 12.1443 55.8609 12.6314 55.8609 13.2536C55.8609 13.8895 56.0267 14.3883 56.3615 14.7485C56.6946 15.1053 57.1208 15.2829 57.6399 15.2829Z" fill="#6172F3"/>
<path d="M71.2303 13.2874C71.2303 13.311 71.2133 13.5545 71.1829 14.0179H65.0411C65.1663 14.4558 65.4081 14.7924 65.7649 15.0257C66.1251 15.2608 66.5766 15.3774 67.1177 15.3774C67.5235 15.3774 67.8719 15.3216 68.1661 15.2083C68.4638 15.0917 68.7631 14.9023 69.0658 14.6402L70.6215 16.2635C69.7997 17.1801 68.6007 17.6366 67.023 17.6366C66.0355 17.6366 65.1663 17.4506 64.4188 17.0752C63.6697 16.7015 63.0897 16.1824 62.6805 15.5195C62.2696 14.8532 62.0649 14.0974 62.0649 13.2535C62.0649 12.4249 62.2645 11.6809 62.6669 11.0214C63.0677 10.3585 63.6207 9.84106 64.3241 9.46565C65.031 9.09194 65.8275 8.90424 66.7119 8.90424C67.5506 8.90424 68.3116 9.0801 68.9981 9.43183C69.688 9.78018 70.2309 10.2824 70.6283 10.9402C71.029 11.5997 71.2303 12.381 71.2303 13.2874ZM66.7254 11.0146C66.2688 11.0146 65.8883 11.1465 65.5823 11.4069C65.2745 11.664 65.0783 12.0157 64.9938 12.4621H68.457C68.3707 12.0157 68.1746 11.664 67.8685 11.4069C67.5607 11.1465 67.1803 11.0146 66.7254 11.0146Z" fill="#6172F3"/>
<path d="M71.4199 5.92816H74.3758V17.4947H71.4199V5.92816Z" fill="#6172F3"/>
<path d="M83.9946 9.04623V17.4946H81.174V16.5882C80.8629 16.9314 80.4875 17.1936 80.0512 17.3728C79.6132 17.5487 79.1516 17.6366 78.6645 17.6366C77.5721 17.6366 76.703 17.3153 76.0536 16.6693C75.4043 16.0251 75.0796 15.0578 75.0796 13.7676V9.04623H78.0423V13.2873C78.0423 13.9197 78.1606 14.3814 78.4007 14.6739C78.6392 14.9631 78.9858 15.1068 79.4424 15.1068C79.9108 15.1068 80.2913 14.9445 80.5855 14.6198C80.8832 14.2918 81.032 13.7912 81.032 13.1182V9.04623H83.9946Z" fill="#6172F3"/>
<path d="M95.712 8.90424C96.7537 8.90424 97.5823 9.21876 98.2012 9.84444C98.8184 10.4667 99.1279 11.4069 99.1279 12.6651V17.4946H96.1652V13.1453C96.1652 12.5551 96.0519 12.1206 95.827 11.8398C95.6055 11.5558 95.2926 11.4137 94.8868 11.4137C94.4404 11.4137 94.0819 11.5727 93.8113 11.8872C93.5407 12.1983 93.4055 12.6701 93.4055 13.3009V17.4946H90.4428V13.1453C90.4428 11.992 90.0167 11.4137 89.1644 11.4137C88.7078 11.4137 88.3459 11.5727 88.0754 11.8872C87.8048 12.1983 87.6695 12.6701 87.6695 13.3009V17.4946H84.7136V9.04628H87.5342V9.93914C87.8454 9.59755 88.214 9.34052 88.6435 9.16803C89.0764 8.99217 89.5466 8.90424 90.0572 8.90424C90.6474 8.90424 91.1767 9.01584 91.6468 9.23568C92.1152 9.45213 92.494 9.78356 92.7832 10.23C93.1163 9.80724 93.5374 9.47918 94.048 9.2492C94.557 9.01923 95.1117 8.90424 95.712 8.90424Z" fill="#6172F3"/>
<path d="M105.628 9.03276H102.273V6.58417H112.047V9.03276H108.712V17.4946H105.628V9.03276Z" fill="#6172F3"/>
<path d="M111.877 9.04629H114.833V17.4946H111.877V9.04629ZM113.359 8.11285C112.818 8.11285 112.38 7.96235 112.047 7.65966C111.717 7.35866 111.553 6.98325 111.553 6.53682C111.553 6.0904 111.717 5.71837 112.047 5.42075C112.38 5.11975 112.818 4.96756 113.359 4.96756C113.9 4.96756 114.334 5.10961 114.664 5.3937C114.997 5.67779 115.165 6.04305 115.165 6.48948C115.165 6.95958 114.997 7.34682 114.664 7.6529C114.334 7.96066 113.9 8.11285 113.359 8.11285Z" fill="#6172F3"/>
<path d="M124.547 5.92816V17.4947H121.726V16.656C121.175 17.3104 120.348 17.6368 119.244 17.6368C118.476 17.6368 117.776 17.4592 117.14 17.1024C116.508 16.7422 116.007 16.2298 115.639 15.567C115.268 14.9007 115.084 14.1296 115.084 13.2536C115.084 12.3845 115.268 11.6201 115.639 10.9606C116.007 10.2978 116.508 9.79045 117.14 9.43871C117.776 9.0836 118.476 8.90435 119.244 8.90435C120.253 8.90435 121.033 9.19859 121.584 9.78368V5.92816H124.547ZM119.866 15.2829C120.375 15.2829 120.796 15.1053 121.131 14.7485C121.464 14.3883 121.632 13.8895 121.632 13.2536C121.632 12.6314 121.466 12.1443 121.138 11.7926C120.813 11.4375 120.389 11.2582 119.866 11.2582C119.347 11.2582 118.921 11.4375 118.588 11.7926C118.258 12.1443 118.094 12.6314 118.094 13.2536C118.094 13.8895 118.258 14.3883 118.588 14.7485C118.921 15.1053 119.347 15.2829 119.866 15.2829Z" fill="#6172F3"/>
<path d="M134.145 9.04642V17.4947H131.325V16.5884C131.014 16.9316 130.638 17.1937 130.202 17.373C129.764 17.5489 129.302 17.6368 128.815 17.6368C127.723 17.6368 126.854 17.3155 126.204 16.6695C125.555 16.0252 125.23 15.058 125.23 13.7677V9.04642H128.193V13.2875C128.193 13.9199 128.311 14.3816 128.552 14.6741C128.79 14.9633 129.137 15.107 129.593 15.107C130.062 15.107 130.442 14.9447 130.736 14.62C131.034 14.292 131.183 13.7914 131.183 13.1184V9.04642H134.145Z" fill="#6172F3"/>
<path d="M137.685 10.0609C137.983 9.67872 138.372 9.38956 138.856 9.19509C139.343 9.00231 139.897 8.90424 140.52 8.90424V11.5693C140.249 11.5422 140.026 11.5287 139.85 11.5287C139.214 11.5287 138.715 11.7012 138.355 12.0428C137.998 12.386 137.821 12.9086 137.821 13.612V17.4946H134.865V9.04628H137.685V10.0609Z" fill="#6172F3"/>
</svg>
